<?xml version="1.0" encoding="UTF-8" standalone="no"?>
<!-- Created with Friction - https://friction.graphics -->
<svg viewBox="0 0 1000 858" xmlns="http://www.w3.org/2000/svg" xmlns:xlink="http://www.w3.org/1999/xlink">
 <g transform="translate(499.733 429.177)">
  <g transform="translate(0 0)">
   <g transform="rotate(0)">
    <g transform="scale(1 1)">
     <g transform="skewX(0) skewY(0)">
      <g transform="translate(-499.733 -429.177)" opacity="1">
       <g id="Group">
        <g transform="translate(499.733 429.177)">
         <g transform="translate(0 0)">
          <g transform="rotate(0)">
           <g transform="scale(1 1)">
            <g transform="skewX(0) skewY(0)">
             <g transform="translate(-499.733 -429.177)" opacity="1">
              <g id="Logo1">
               <g transform="translate(499.733 429.177)">
                <g transform="translate(0 0)">
                 <g transform="rotate(0)">
                  <g transform="scale(1 1)">
                   <g transform="skewX(0) skewY(0)">
                    <g transform="translate(-499.733 -429.177)" opacity="1">
                     <g id="Group">
                      <g transform="translate(499.733 429.177)">
                       <g transform="translate(0 0)">
                        <g transform="rotate(0)">
                         <g transform="scale(1 1)">
                          <g transform="skewX(0) skewY(0)">
                           <g transform="translate(-499.733 -429.177)" opacity="1">
                            <path fill="url(#0x0000017bb84b9680)" id="Path" d="M63.615 685.204C63.615 685.204 0 647.665 0 601.427C0 601.427 0 83.776 0 83.776C0 37.538 37.539 -0.000999451 83.777 -0.000999451C83.777 -0.000999451 916.224 -0.000999451 916.224 -0.000999451C962.462 -0.000999451 1000 37.538 1000 83.776C1000 83.776 1000 601.427 1000 601.427C1000 647.665 962.462 685.204 916.224 685.204C916.224 685.204 239.313 685.204 239.313 685.204C239.313 685.204 0.000991821 857.494 0.000991821 857.494C0.000991821 857.494 63.616 685.204 63.616 685.204C63.616 685.204 63.615 685.204 63.615 685.204ZM592.479 250.771C650.034 254.072 682.38 285.7 688.504 346.796C693.423 287.961 724.997 255.523 784.529 250.771C732.241 250.81 697.844 222.576 688.504 154.746C681.502 220.373 647.202 249.301 592.479 250.771ZM552.83 475.566C583.142 477.305 600.177 493.962 603.402 526.138C605.993 495.152 622.621 478.068 653.974 475.566C626.436 475.587 608.321 460.717 603.402 424.994C599.714 459.557 581.65 474.792 552.83 475.566C552.83 475.566 552.83 475.566 552.83 475.566ZM215.471 319.83C319.909 325.82 378.605 383.212 389.716 494.075C398.642 387.315 455.936 328.453 563.961 319.83C469.079 319.902 406.664 268.668 389.716 145.585C377.01 264.671 314.77 317.163 215.471 319.83Z" fill-rule="evenodd" stroke-width="1" stroke-linejoin="miter" stroke="none" stroke-linecap="butt"/>
                           </g>
                          </g>
                         </g>
                        </g>
                       </g>
                      </g>
                      <g transform="translate(389.722 319.822)">
                       <g transform="translate(0 0)">
                        <g transform="rotate(0)">
                         <g transform="scale(1 1)">
                          <g transform="skewX(0) skewY(0)">
                           <g transform="translate(-389.722 -319.822)" opacity="1">
                            <path fill="rgba(255, 255, 255, 1)" id="Path0" d="M215.471 319.831C314.77 317.163 377.01 264.672 389.716 145.586C406.664 268.669 469.079 319.903 563.961 319.831C455.935 328.454 398.642 387.316 389.716 494.076C378.605 383.213 319.909 325.821 215.471 319.831C215.471 319.831 215.471 319.831 215.471 319.831Z" fill-rule="evenodd" stroke-width="1" stroke-linejoin="miter" stroke="none" stroke-linecap="butt"/>
                           </g>
                          </g>
                         </g>
                        </g>
                       </g>
                      </g>
                      <g transform="translate(688.51 250.762)">
                       <g transform="translate(0 0)">
                        <g transform="rotate(0)">
                         <g transform="scale(1 1)">
                          <g transform="skewX(0) skewY(0)">
                           <g transform="translate(-688.51 -250.762)" opacity="1">
                            <path fill="rgba(255, 255, 255, 1)" id="Path1" d="M592.479 250.771C647.202 249.301 681.501 220.374 688.504 154.746C697.844 222.576 732.24 250.81 784.529 250.771C724.997 255.523 693.423 287.961 688.504 346.796C682.381 285.701 650.034 254.072 592.479 250.771Z" fill-rule="evenodd" stroke-width="1" stroke-linejoin="miter" stroke="none" stroke-linecap="butt"/>
                           </g>
                          </g>
                         </g>
                        </g>
                       </g>
                      </g>
                      <g transform="translate(603.408 475.558)">
                       <g transform="translate(0 0)">
                        <g transform="rotate(0)">
                         <g transform="scale(1 1)">
                          <g transform="skewX(0) skewY(0)">
                           <g transform="translate(-603.408 -475.558)" opacity="1">
                            <path fill="rgba(255, 255, 255, 1)" id="Path2" d="M552.83 475.567C581.65 474.793 599.715 459.558 603.402 424.995C608.321 460.718 626.436 475.588 653.974 475.567C622.621 478.07 605.992 495.154 603.402 526.139C600.177 493.963 583.142 477.305 552.83 475.567Z" fill-rule="evenodd" stroke-width="1" stroke-linejoin="miter" stroke="none" stroke-linecap="butt"/>
                           </g>
                          </g>
                         </g>
                        </g>
                       </g>
                      </g>
                     </g>
                    </g>
                   </g>
                  </g>
                 </g>
                </g>
               </g>
               <g transform="translate(889.933 105.158)">
                <g transform="translate(0 0)">
                 <g transform="rotate(0)">
                  <g transform="scale(1 1)">
                   <g transform="skewX(0) skewY(0)">
                    <g transform="translate(-889.933 -105.158)" opacity="1">
                     <ellipse id="Circle" cx="889.933" ry="61.505" stroke-width="1" stroke-linejoin="miter" cy="105.158" rx="61.505" stroke="none" stroke-linecap="butt">
                      <animate keyTimes="0;0.0166667;0.0333333;0.05;0.0666667;0.0833333;0.1;0.116667;0.133333;0.15;0.166667;0.183333;0.2;0.216667;0.233333;0.25;0.266667;0.283333;0.3;0.316667;0.333333;0.35;0.366667;0.383333;0.4;0.416667;0.433333;0.45;0.466667;0.483333;0.5;0.516667;0.533333;0.55;0.566667;0.583333;0.6;0.616667;0.633333;0.65;0.666667;0.683333;0.7;0.716667;0.733333;0.75;0.766667;0.783333;0.8;0.816667;0.833333;0.85;0.866667;0.883333;0.9;0.916667;0.933333;0.95;0.966667;0.983333;1" dur="2s" calcMode="linear" values="rgba(0, 165, 1, 1);rgba(0, 167, 1, 1);rgba(0, 170, 1, 1);rgba(0, 172, 1, 1);rgba(0, 174, 1, 1);rgba(0, 176, 1, 1);rgba(0, 179, 1, 1);rgba(0, 181, 1, 1);rgba(0, 183, 1, 1);rgba(0, 186, 1, 1);rgba(0, 188, 1, 1);rgba(0, 190, 1, 1);rgba(0, 192, 1, 1);rgba(0, 195, 1, 1);rgba(0, 197, 1, 1);rgba(0, 199, 1, 1);rgba(0, 202, 1, 1);rgba(0, 204, 1, 1);rgba(0, 206, 1, 1);rgba(0, 208, 1, 1);rgba(0, 211, 1, 1);rgba(0, 213, 1, 1);rgba(0, 215, 1, 1);rgba(0, 218, 1, 1);rgba(0, 220, 1, 1);rgba(0, 222, 1, 1);rgba(0, 224, 1, 1);rgba(0, 227, 1, 1);rgba(0, 229, 1, 1);rgba(0, 231, 1, 1);rgba(0, 234, 1, 1);rgba(0, 231, 1, 1);rgba(0, 229, 1, 1);rgba(0, 227, 1, 1);rgba(0, 224, 1, 1);rgba(0, 222, 1, 1);rgba(0, 220, 1, 1);rgba(0, 218, 1, 1);rgba(0, 215, 1, 1);rgba(0, 213, 1, 1);rgba(0, 211, 1, 1);rgba(0, 208, 1, 1);rgba(0, 206, 1, 1);rgba(0, 204, 1, 1);rgba(0, 202, 1, 1);rgba(0, 199, 1, 1);rgba(0, 197, 1, 1);rgba(0, 195, 1, 1);rgba(0, 192, 1, 1);rgba(0, 190, 1, 1);rgba(0, 188, 1, 1);rgba(0, 185, 1, 1);rgba(0, 183, 1, 1);rgba(0, 181, 1, 1);rgba(0, 179, 1, 1);rgba(0, 176, 1, 1);rgba(0, 174, 1, 1);rgba(0, 172, 1, 1);rgba(0, 169, 1, 1);rgba(0, 167, 1, 1);rgba(0, 165, 1, 1)" attributeName="fill" repeatCount="indefinite"/>
                     </ellipse>
                    </g>
                   </g>
                  </g>
                 </g>
                </g>
               </g>
              </g>
             </g>
            </g>
           </g>
          </g>
         </g>
        </g>
       </g>
      </g>
     </g>
    </g>
   </g>
  </g>
 </g>
 <defs>
  <linearGradient id="0x0000017bbb396cf0">
   <stop offset="0" stop-color="rgba(255, 35, 207, 0.990005)"/>
   <stop offset="1" stop-color="rgba(200, 20, 149, 0.990005)"/>
  </linearGradient>
  <linearGradient x1="-1.03483" id="0x0000017bb84b9680" x2="1000.5" gradientUnits="userSpaceOnUse" xlink:href="#0x0000017bbb396cf0" y2="858.856" y1="-0.500999"/>
 </defs>
</svg>

